<svg width="1em" height="1em" viewBox="0 0 24 24" fill="none" xmlns="http://www.w3.org/2000/svg">
<rect width="1em" height="1em" fill="#171A1C"/>
<path d="M110.584 391.776L52.216 365.792V352.224L110.584 326.24V337.248L60.152 359.776V358.24L110.584 380.768V391.776ZM148.934 396V328.16H157.894L158.918 345.312L157.894 345.056C158.747 339.253 160.582 334.987 163.398 332.256C166.299 329.525 170.139 328.16 174.918 328.16H188.87V337.888H175.046C171.718 337.888 168.902 338.571 166.598 339.936C164.379 341.216 162.673 343.136 161.478 345.696C160.283 348.171 159.686 351.285 159.686 355.04V396H148.934ZM131.27 396V386.528H181.19V396H131.27ZM131.27 337.632V328.16H154.822V337.632H131.27ZM234.004 396V328.16H244.756V396H234.004ZM206.74 396V386.528H268.18V396H206.74ZM208.02 337.632V328.16H244.756V337.632H208.02ZM232.98 317.536V304.992H244.244V317.536H232.98ZM300.386 396V323.808C300.386 317.749 301.922 313.141 304.994 309.984C308.151 306.741 312.93 305.12 319.33 305.12H341.09V314.592H319.33C316.685 314.592 314.637 315.445 313.186 317.152C311.821 318.773 311.138 320.992 311.138 323.808V396H300.386ZM282.21 337.632V328.16H339.81V337.632H282.21ZM379.44 397.536C375.173 397.536 371.333 396.768 367.92 395.232C364.507 393.696 361.819 391.563 359.856 388.832C357.893 386.016 356.912 382.773 356.912 379.104C356.912 373.301 358.619 368.821 362.032 365.664C365.531 362.421 370.992 360.075 378.416 358.624L401.2 354.016C401.2 348.213 399.877 343.904 397.232 341.088C394.672 338.272 390.96 336.864 386.096 336.864C381.403 336.864 377.733 337.931 375.088 340.064C372.443 342.112 370.608 345.099 369.584 349.024L358.192 348.128C359.472 341.728 362.501 336.565 367.28 332.64C372.144 328.629 378.416 326.624 386.096 326.624C394.288 326.624 400.645 329.099 405.168 334.048C409.691 338.912 411.952 345.653 411.952 354.272V382.432C411.952 383.968 412.293 385.035 412.976 385.632C413.659 386.229 414.683 386.528 416.048 386.528H420.4V396C419.888 396.085 419.077 396.128 417.968 396.128C416.859 396.213 415.792 396.256 414.768 396.256C411.867 396.256 409.392 395.787 407.344 394.848C405.381 393.909 403.888 392.416 402.864 390.368C401.84 388.235 401.285 385.504 401.2 382.176H403.248C402.651 385.077 401.2 387.723 398.896 390.112C396.677 392.416 393.861 394.251 390.448 395.616C387.035 396.896 383.365 397.536 379.44 397.536ZM380.464 388.064C385.072 388.064 388.912 387.296 391.984 385.76C395.056 384.139 397.36 381.92 398.896 379.104C400.432 376.203 401.2 372.875 401.2 369.12V363.232L380.464 367.328C375.856 368.181 372.656 369.504 370.864 371.296C369.072 373.003 368.176 375.264 368.176 378.08C368.176 381.237 369.243 383.712 371.376 385.504C373.595 387.211 376.624 388.064 380.464 388.064ZM475.134 396C468.563 396 463.657 394.464 460.414 391.392C457.171 388.32 455.55 383.627 455.55 377.312V312.288H466.302V377.312C466.302 380.469 467.027 382.816 468.478 384.352C469.929 385.803 472.147 386.528 475.134 386.528H493.31V396H475.134ZM433.15 337.632V328.16H493.31V337.632H433.15ZM517.324 410.08L556.236 300H566.476L527.564 410.08H517.324ZM589.466 391.776V380.768L639.898 358.24V359.776L589.466 337.248V326.24L647.834 352.224V365.792L589.466 391.776Z" fill="#D5D9DD"/>
</svg>
