<?xml version="1.0" standalone="no"?>
<!DOCTYPE svg PUBLIC "-//W3C//DTD SVG 20010904//EN"
 "http://www.w3.org/TR/2001/REC-SVG-20010904/DTD/svg10.dtd">
<svg version="1.0" xmlns="http://www.w3.org/2000/svg"
 width="185.000000pt" height="185.000000pt" viewBox="0 0 185.000000 185.000000"
 preserveAspectRatio="xMidYMid meet">
<metadata>
Created by potrace 1.14, written by Peter Selinger 2001-2017
</metadata>
<g transform="translate(0.000000,185.000000) scale(0.100000,-0.100000)"
fill="#000000" stroke="none">
<path d="M400 1424 c-153 -27 -245 -65 -323 -134 -61 -54 -77 -86 -73 -144 4
-53 23 -79 78 -107 53 -27 57 -6 4 25 -51 30 -61 55 -40 105 32 77 121 135
264 171 100 25 140 31 236 31 194 1 304 -50 304 -141 0 -90 -150 -193 -357
-246 -90 -23 -177 -33 -188 -23 -2 3 21 46 53 95 71 109 153 194 187 194 48 0
24 34 -36 53 -23 7 -71 -16 -108 -53 -44 -45 -59 -69 -66 -109 -3 -19 -20 -61
-38 -95 -30 -57 -34 -61 -64 -58 -24 2 -33 -1 -38 -17 -8 -25 1 -41 21 -41 18
0 19 4 -19 -76 -74 -152 -82 -199 -38 -216 21 -7 30 -2 73 44 26 29 48 59 48
68 0 9 -13 1 -36 -22 -37 -40 -50 -46 -57 -25 -8 23 78 208 100 214 4 1 44
-51 88 -115 167 -245 331 -362 505 -362 67 0 139 32 157 71 21 43 21 133 1
126 -8 -2 -12 -16 -10 -36 7 -64 -97 -119 -181 -94 l-31 9 45 26 c84 50 163
155 258 345 53 107 63 120 83 117 13 -2 52 -8 88 -13 36 -6 90 -13 120 -16 85
-9 82 -6 55 -80 -48 -127 -40 -233 18 -236 98 -7 158 28 260 150 70 84 37 74
-52 -16 -89 -88 -148 -124 -184 -110 -30 12 -25 87 15 210 17 53 26 67 42 68
85 3 148 29 154 63 4 16 1 16 -25 -3 -24 -18 -133 -46 -133 -34 0 14 107 215
142 266 60 88 88 113 126 108 24 -3 12 27 -15 38 -53 22 -71 20 -111 -9 -54
-39 -80 -79 -92 -141 -6 -29 -32 -99 -60 -156 l-49 -104 -38 7 c-21 4 -47 8
-58 10 -42 7 -205 46 -205 48 0 2 31 83 69 182 58 151 67 180 53 185 -34 12
-60 -4 -96 -59 -42 -64 -105 -116 -153 -127 -18 -3 -33 -11 -33 -17 0 -16 67
-2 122 25 26 13 48 21 48 18 0 -3 -14 -50 -32 -104 l-32 -98 -45 8 c-83 14
-193 8 -235 -12 -61 -29 -93 -120 -66 -190 13 -33 31 -23 24 13 -7 37 31 92
81 117 30 14 61 19 122 20 45 0 85 -3 89 -7 4 -5 -10 -46 -31 -93 -87 -196
-203 -342 -292 -368 -45 -14 -51 -13 -95 9 -26 13 -51 32 -57 41 -5 10 -13 15
-16 11 -11 -10 -112 83 -178 165 -18 22 -54 66 -80 98 -27 33 -47 59 -45 59 1
1 28 3 58 6 123 11 252 45 344 91 66 34 143 114 152 158 18 99 -53 191 -171
220 -16 4 -39 9 -50 12 -29 6 -226 12 -255 7z"/>
</g>
</svg>
