<svg width="1em" height="1em" viewBox="0 0 24 24" fill="none" xmlns="http://www.w3.org/2000/svg">
    <path d="M6.17386 13.802L3.43786 12.584V11.948L6.17386 10.73V11.246L3.80986 12.302V12.23L6.17386 13.286V13.802ZM7.97152 14V10.82H8.39152L8.43952 11.624L8.39152 11.612C8.43152 11.34 8.51752 11.14 8.64952 11.012C8.78552 10.884 8.96552 10.82 9.18952 10.82H9.84352V11.276H9.19552C9.03952 11.276 8.90752 11.308 8.79952 11.372C8.69552 11.432 8.61552 11.522 8.55952 11.642C8.50352 11.758 8.47552 11.904 8.47552 12.08V14H7.97152ZM7.14352 14V13.556H9.48352V14H7.14352ZM7.14352 11.264V10.82H8.24752V11.264H7.14352ZM10.8012 14V9.74H11.3052V11.522L11.2452 11.51C11.2852 11.334 11.3532 11.19 11.4492 11.078C11.5452 10.966 11.6632 10.884 11.8032 10.832C11.9432 10.776 12.0952 10.748 12.2592 10.748C12.4872 10.748 12.6792 10.8 12.8352 10.904C12.9952 11.004 13.1152 11.146 13.1952 11.33C13.2792 11.51 13.3212 11.718 13.3212 11.954V14H12.8172V12.098C12.8172 11.79 12.7612 11.562 12.6492 11.414C12.5412 11.266 12.3752 11.192 12.1512 11.192C11.8952 11.192 11.6892 11.27 11.5332 11.426C11.3812 11.582 11.3052 11.808 11.3052 12.104V14H10.8012ZM14.4468 14.66L16.2708 9.5H16.7508L14.9268 14.66H14.4468ZM17.8285 13.802V13.286L20.1925 12.23V12.302L17.8285 11.246V10.73L20.5645 11.948V12.584L17.8285 13.802Z" fill="currentColor" />
  </svg>